<svg width="766" height="142" viewBox="0 0 766 142" fill="none" xmlns="http://www.w3.org/2000/svg">
<path d="M0 35C0 21.7452 10.7452 11 24 11H104C117.255 11 128 21.7452 128 35V115C128 128.255 117.255 139 104 139H24C10.7452 139 0 128.255 0 115V35Z" fill="url(#paint0_linear_383_8)"/>
<rect x="46" y="39" width="54" height="12" fill="white"/>
<rect x="34" y="59" width="54" height="12" fill="white"/>
<rect x="40" y="79" width="54" height="12" fill="white"/>
<rect x="28" y="99" width="54" height="12" fill="white"/>
<path d="M173.856 117V33.544H202.528C208.672 33.544 214.219 34.3973 219.168 36.104C224.203 37.7253 228.213 40.4987 231.2 44.424C234.187 48.3493 235.68 53.6827 235.68 60.424C235.68 66.9093 234.187 72.2427 231.2 76.424C228.213 80.6053 224.245 83.72 219.296 85.768C214.347 87.7307 208.928 88.712 203.04 88.712H192.672V117H173.856ZM192.672 73.736H201.888C212.128 73.736 217.248 69.2987 217.248 60.424C217.248 56.072 215.883 53 213.152 51.208C210.421 49.416 206.496 48.52 201.376 48.52H192.672V73.736ZM259.427 118.536C253.624 118.536 249.016 116.701 245.603 113.032C242.19 109.277 240.483 104.712 240.483 99.336C240.483 92.68 243.299 87.4747 248.931 83.72C254.563 79.9653 263.651 77.448 276.195 76.168C276.024 73.352 275.171 71.1333 273.635 69.512C272.184 67.8053 269.71 66.952 266.211 66.952C263.566 66.952 260.878 67.464 258.147 68.488C255.416 69.512 252.515 70.92 249.443 72.712L242.659 60.296C246.67 57.8213 250.936 55.816 255.459 54.28C260.067 52.744 264.846 51.976 269.795 51.976C277.902 51.976 284.131 54.3227 288.483 59.016C292.835 63.7093 295.011 70.92 295.011 80.648V117H279.651L278.371 110.472H277.859C275.214 112.861 272.355 114.824 269.283 116.36C266.296 117.811 263.011 118.536 259.427 118.536ZM265.827 103.944C267.96 103.944 269.795 103.475 271.331 102.536C272.952 101.512 274.574 100.189 276.195 98.568V87.432C269.539 88.2853 264.931 89.6507 262.371 91.528C259.811 93.32 258.531 95.4533 258.531 97.928C258.531 99.976 259.171 101.512 260.451 102.536C261.816 103.475 263.608 103.944 265.827 103.944ZM310.159 140.552V53.512H325.519L326.799 59.784H327.311C329.786 57.5653 332.559 55.7307 335.631 54.28C338.788 52.744 342.031 51.976 345.359 51.976C353.039 51.976 359.098 54.92 363.535 60.808C367.972 66.6107 370.191 74.4187 370.191 84.232C370.191 91.4853 368.911 97.672 366.351 102.792C363.791 107.912 360.463 111.837 356.367 114.568C352.356 117.213 348.047 118.536 343.439 118.536C340.708 118.536 338.063 117.981 335.503 116.872C332.943 115.677 330.554 114.013 328.335 111.88L328.975 121.992V140.552H310.159ZM339.087 103.176C342.33 103.176 345.103 101.683 347.407 98.696C349.711 95.7093 350.863 90.9733 350.863 84.488C350.863 73.0533 347.194 67.336 339.855 67.336C336.186 67.336 332.559 69.256 328.975 73.096V99.08C330.682 100.616 332.388 101.683 334.095 102.28C335.802 102.877 337.466 103.176 339.087 103.176ZM388.806 141.832C386.929 141.832 385.265 141.704 383.814 141.448C382.449 141.192 381.126 140.893 379.846 140.552L383.174 126.216C383.771 126.301 384.454 126.429 385.222 126.6C385.99 126.856 386.715 126.984 387.398 126.984C390.555 126.984 392.987 126.216 394.694 124.68C396.401 123.144 397.681 121.139 398.534 118.664L399.43 115.336L374.982 53.512H393.926L403.014 80.776C403.953 83.6773 404.806 86.6213 405.574 89.608C406.342 92.5947 407.153 95.6667 408.006 98.824H408.518C409.201 95.8373 409.883 92.8507 410.566 89.864C411.334 86.792 412.102 83.7627 412.87 80.776L420.55 53.512H438.598L416.582 117.64C414.619 122.931 412.443 127.368 410.054 130.952C407.665 134.621 404.763 137.352 401.35 139.144C398.022 140.936 393.841 141.832 388.806 141.832ZM447.748 117V53.512H463.108L464.388 64.648H464.9C467.204 60.3813 469.977 57.224 473.22 55.176C476.463 53.0427 479.705 51.976 482.948 51.976C484.74 51.976 486.233 52.104 487.428 52.36C488.623 52.5307 489.647 52.8293 490.5 53.256L487.428 69.512C486.319 69.1707 485.209 68.9147 484.1 68.744C483.076 68.5733 481.881 68.488 480.516 68.488C478.127 68.488 475.609 69.384 472.964 71.176C470.404 72.8827 468.271 75.8693 466.564 80.136V117H447.748ZM517.052 118.536C510.14 118.536 505.105 116.275 501.948 111.752C498.876 107.144 497.34 100.872 497.34 92.936V53.512H516.156V90.504C516.156 95.0267 516.796 98.184 518.076 99.976C519.356 101.683 521.361 102.536 524.092 102.536C526.481 102.536 528.487 101.981 530.108 100.872C531.729 99.7627 533.479 97.9707 535.356 95.496V53.512H554.172V117H538.812L537.404 108.168H537.02C534.375 111.325 531.473 113.843 528.316 115.72C525.159 117.597 521.404 118.536 517.052 118.536ZM588.65 118.536C584.469 118.536 580.159 117.725 575.722 116.104C571.37 114.483 567.573 112.349 564.33 109.704L572.778 97.928C575.679 100.061 578.453 101.725 581.098 102.92C583.829 104.029 586.517 104.584 589.162 104.584C591.978 104.584 594.026 104.115 595.306 103.176C596.586 102.152 597.226 100.829 597.226 99.208C597.226 97.7573 596.586 96.5627 595.306 95.624C594.111 94.6853 592.533 93.832 590.57 93.064C588.607 92.2107 586.517 91.3573 584.298 90.504C581.738 89.48 579.178 88.2 576.618 86.664C574.143 85.128 572.053 83.1653 570.346 80.776C568.639 78.3013 567.786 75.3147 567.786 71.816C567.786 65.928 570.005 61.1493 574.442 57.48C578.965 53.8107 584.853 51.976 592.106 51.976C596.97 51.976 601.237 52.8293 604.906 54.536C608.661 56.1573 611.861 57.992 614.506 60.04L606.058 71.304C603.839 69.5973 601.621 68.2747 599.402 67.336C597.183 66.3973 594.965 65.928 592.746 65.928C587.882 65.928 585.45 67.592 585.45 70.92C585.45 72.968 586.645 74.5467 589.034 75.656C591.509 76.68 594.367 77.7893 597.61 78.984C600.341 79.9227 602.986 81.16 605.546 82.696C608.191 84.1467 610.367 86.1093 612.074 88.584C613.866 90.9733 614.762 94.1307 614.762 98.056C614.762 103.773 612.543 108.637 608.106 112.648C603.669 116.573 597.183 118.536 588.65 118.536ZM685.233 118.536C674.396 118.536 666.118 115.336 660.401 108.936C654.684 102.536 651.825 92.3387 651.825 78.344V33.544H670.769V80.264C670.769 88.456 672.006 94.1733 674.481 97.416C676.956 100.659 680.54 102.28 685.233 102.28C689.926 102.28 693.553 100.659 696.113 97.416C698.673 94.1733 699.953 88.456 699.953 80.264V33.544H718.129V78.344C718.129 92.3387 715.313 102.536 709.681 108.936C704.134 115.336 695.985 118.536 685.233 118.536ZM736.694 117V33.544H755.51V117H736.694Z" fill="#1B1C1C"/>
<defs>
<linearGradient id="paint0_linear_383_8" x1="0" y1="75" x2="255.529" y2="75" gradientUnits="userSpaceOnUse">
<stop stop-color="#FF512F"/>
<stop offset="1" stop-color="#DD2476"/>
</linearGradient>
</defs>
</svg>
