<svg width="128" height="22" viewBox="0 0 128 22" fill="none" xmlns="http://www.w3.org/2000/svg">
<path d="M0 4.03571C0 1.80685 1.80685 0 4.03571 0H17.4881C19.7169 0 21.5238 1.80685 21.5238 4.03571V17.4881C21.5238 19.7169 19.7169 21.5238 17.4881 21.5238H4.03571C1.80685 21.5238 0 19.7169 0 17.4881V4.03571Z" fill="url(#paint0_linear_391_11)"/>
<rect x="7.73486" y="4.71094" width="9.08035" height="2.01785" fill="white"/>
<rect x="5.7168" y="8.07422" width="9.08035" height="2.01785" fill="white"/>
<rect x="6.72607" y="11.4375" width="9.08035" height="2.01785" fill="white"/>
<rect x="4.70801" y="14.8008" width="9.08035" height="2.01785" fill="white"/>
<path d="M123.878 17.8265V3.79297H127.042V17.8265H123.878Z" fill="#161617"/>
<path d="M115.225 18.0848C113.402 18.0848 112.01 17.5467 111.049 16.4705C110.088 15.3943 109.607 13.6796 109.607 11.3263V3.79297H112.792V11.6492C112.792 13.0267 113.001 13.9881 113.417 14.5333C113.833 15.0786 114.435 15.3512 115.225 15.3512C116.014 15.3512 116.624 15.0786 117.054 14.5333C117.485 13.9881 117.7 13.0267 117.7 11.6492V3.79297H120.756V11.3263C120.756 13.6796 120.283 15.3943 119.336 16.4705C118.403 17.5467 117.033 18.0848 115.225 18.0848Z" fill="#161617"/>
<path d="M98.9841 18.0869C98.2809 18.0869 97.5563 17.9506 96.8101 17.6779C96.0783 17.4053 95.4398 17.0466 94.8945 16.6018L96.3151 14.6216C96.803 14.9803 97.2693 15.2601 97.7141 15.461C98.1733 15.6475 98.6253 15.7408 99.0701 15.7408C99.5437 15.7408 99.8881 15.6619 100.103 15.504C100.319 15.3319 100.426 15.1094 100.426 14.8368C100.426 14.5929 100.319 14.392 100.103 14.2341C99.9024 14.0763 99.6369 13.9328 99.3069 13.8037C98.9769 13.6602 98.6253 13.5167 98.2522 13.3732C97.8218 13.201 97.3913 12.9858 96.9608 12.7275C96.5447 12.4692 96.1931 12.1392 95.9062 11.7374C95.6192 11.3213 95.4757 10.819 95.4757 10.2307C95.4757 9.24062 95.8488 8.43707 96.5949 7.82005C97.3554 7.20304 98.3455 6.89453 99.5652 6.89453C100.383 6.89453 101.101 7.03802 101.718 7.32501C102.349 7.59764 102.887 7.90615 103.332 8.25053L101.911 10.1446C101.538 9.85764 101.165 9.63523 100.792 9.47739C100.419 9.31954 100.046 9.24062 99.6728 9.24062C98.8549 9.24062 98.446 9.52043 98.446 10.0801C98.446 10.4244 98.6468 10.6899 99.0486 10.8764C99.4647 11.0486 99.9454 11.2352 100.491 11.436C100.95 11.5939 101.395 11.802 101.825 12.0602C102.27 12.3042 102.636 12.6342 102.923 13.0503C103.224 13.4521 103.375 13.983 103.375 14.6431C103.375 15.6045 103.002 16.4224 102.256 17.0968C101.51 17.7569 100.419 18.0869 98.9841 18.0869Z" fill="#161617"/>
<path d="M86.9445 18.0864C85.7823 18.0864 84.9357 17.7062 84.4047 16.9457C83.8882 16.1708 83.6299 15.1161 83.6299 13.7817V7.15234H86.7939V13.3727C86.7939 14.1332 86.9015 14.6641 87.1167 14.9655C87.332 15.2525 87.6692 15.396 88.1284 15.396C88.5301 15.396 88.8673 15.3027 89.14 15.1161C89.4126 14.9296 89.7068 14.6283 90.0225 14.2121V7.15234H93.1864V17.8281H90.6036L90.3668 16.343H90.3023C89.8574 16.8739 89.3696 17.2972 88.8386 17.6129C88.3077 17.9286 87.6764 18.0864 86.9445 18.0864Z" fill="#161617"/>
<path d="M75.2905 17.8286V7.15282H77.8734L78.0886 9.02539H78.1747C78.5621 8.30793 79.0285 7.77701 79.5738 7.43263C80.119 7.0739 80.6643 6.89453 81.2096 6.89453C81.5109 6.89453 81.762 6.91606 81.9629 6.9591C82.1638 6.9878 82.336 7.03802 82.4795 7.10977L81.9629 9.84329C81.7764 9.78589 81.5898 9.74285 81.4033 9.71415C81.2311 9.68545 81.0302 9.6711 80.8006 9.6711C80.3988 9.6711 79.9755 9.82177 79.5307 10.1231C79.1002 10.4101 78.7415 10.9123 78.4545 11.6298V17.8286H75.2905Z" fill="#161617"/>
<path d="M65.3793 22.0038C65.0636 22.0038 64.7838 21.9822 64.5398 21.9392C64.3102 21.8961 64.0878 21.8459 63.8726 21.7885L64.4322 19.3779C64.5327 19.3922 64.6474 19.4137 64.7766 19.4424C64.9057 19.4855 65.0277 19.507 65.1425 19.507C65.6734 19.507 66.0824 19.3779 66.3694 19.1196C66.6563 18.8613 66.8716 18.5241 67.0151 18.108L67.1657 17.5483L63.0547 7.15234H66.2402L67.7684 11.7369C67.9262 12.2248 68.0697 12.7198 68.1989 13.2221C68.328 13.7243 68.4643 14.2408 68.6078 14.7718H68.6939C68.8087 14.2695 68.9235 13.7673 69.0383 13.2651C69.1674 12.7485 69.2966 12.2391 69.4257 11.7369L70.7172 7.15234H73.752L70.0499 17.9358C69.7199 18.8254 69.354 19.5716 68.9522 20.1742C68.5504 20.7913 68.0626 21.2504 67.4886 21.5518C66.929 21.8531 66.2259 22.0038 65.3793 22.0038Z" fill="#161617"/>
<path d="M52.1543 21.789V7.15282H54.7372L54.9524 8.20748H55.0385C55.4546 7.8344 55.921 7.5259 56.4375 7.28196C56.9685 7.02367 57.5137 6.89453 58.0733 6.89453C59.3648 6.89453 60.3836 7.38958 61.1297 8.37967C61.8759 9.35542 62.249 10.6684 62.249 12.3185C62.249 13.5382 62.0337 14.5785 61.6032 15.4395C61.1728 16.3004 60.6131 16.9605 59.9244 17.4197C59.25 17.8645 58.5253 18.0869 57.7505 18.0869C57.2913 18.0869 56.8465 17.9936 56.416 17.8071C55.9855 17.6062 55.5838 17.3264 55.2107 16.9677L55.3183 18.668V21.789H52.1543ZM57.0187 15.504C57.5639 15.504 58.0303 15.2529 58.4177 14.7507C58.8051 14.2485 58.9989 13.4521 58.9989 12.3616C58.9989 10.4388 58.3818 9.47739 57.1478 9.47739C56.5308 9.47739 55.921 9.80024 55.3183 10.446V14.8153C55.6053 15.0736 55.8923 15.2529 56.1792 15.3534C56.4662 15.4538 56.746 15.504 57.0187 15.504Z" fill="#161617"/>
<path d="M43.6235 18.0869C42.6478 18.0869 41.8729 17.7784 41.2989 17.1614C40.725 16.53 40.438 15.7623 40.438 14.8583C40.438 13.7391 40.9115 12.8638 41.8586 12.2324C42.8056 11.6011 44.3338 11.1778 46.4431 10.9625C46.4144 10.489 46.2709 10.1159 46.0126 9.84329C45.7687 9.55631 45.3526 9.41281 44.7643 9.41281C44.3194 9.41281 43.8674 9.49891 43.4083 9.6711C42.9491 9.84329 42.4612 10.0801 41.9447 10.3814L40.8039 8.29358C41.4783 7.87745 42.1958 7.54024 42.9563 7.28196C43.7311 7.02367 44.5347 6.89453 45.3669 6.89453C46.7301 6.89453 47.7776 7.28913 48.5094 8.07834C49.2412 8.86754 49.6071 10.0801 49.6071 11.7159V17.8286H47.0243L46.809 16.7309H46.7229C46.2781 17.1327 45.7974 17.4627 45.2808 17.721C44.7786 17.9649 44.2262 18.0869 43.6235 18.0869ZM44.6997 15.6332C45.0584 15.6332 45.3669 15.5543 45.6252 15.3964C45.8979 15.2242 46.1705 15.0018 46.4431 14.7292V12.8566C45.3239 13.0001 44.549 13.2297 44.1186 13.5454C43.6881 13.8467 43.4728 14.2054 43.4728 14.6216C43.4728 14.966 43.5805 15.2242 43.7957 15.3964C44.0253 15.5543 44.3266 15.6332 44.6997 15.6332Z" fill="#161617"/>
<path d="M29.2344 17.8265V3.79297H34.0557C35.0888 3.79297 36.0215 3.93646 36.8538 4.22344C37.7004 4.49608 38.3748 4.96243 38.877 5.62249C39.3793 6.28255 39.6304 7.17938 39.6304 8.31296C39.6304 9.4035 39.3793 10.3003 38.877 11.0034C38.3748 11.7065 37.7076 12.2303 36.8753 12.5747C36.0431 12.9047 35.1319 13.0697 34.1418 13.0697H32.3984V17.8265H29.2344ZM32.3984 10.5514H33.9481C35.67 10.5514 36.5309 9.80528 36.5309 8.31296C36.5309 7.58115 36.3014 7.06458 35.8422 6.76325C35.383 6.46192 34.7229 6.31125 33.862 6.31125H32.3984V10.5514Z" fill="#161617"/>
<defs>
<linearGradient id="paint0_linear_391_11" x1="0" y1="0" x2="21.5238" y2="21.5238" gradientUnits="userSpaceOnUse">
<stop stop-color="#A044FF"/>
<stop offset="1" stop-color="#6A3093"/>
</linearGradient>
</defs>
</svg>
